# xmcd CD database file
#
# Track frame offsets:
#	150
#	35986
#	66386
#	102156
#	141062
#	191425
#
# Disc length: 2909 seconds
#
# Revision: 0
# Processed by: cddbd v1.5.2PL0 Copyright (c) Steve Scherf et al.
# Submitted via: CDex 1.79
#
DISCID=560b5b06
DTITLE=The Melancholy Babes - TONE DEATH
DYEAR=2015
DGENRE=Jazz
TTITLE0=1 - DODECAHEDRON
TTITLE1=2 - A GENTLE WALK
TTITLE2=3 - SEA MALADY
TTITLE3=4 - PHUN KIT
TTITLE4=5 - TONE DEATH
TTITLE5=6 - DREAMVILLE
EXTD=YEAR: 2015
EXTT0=
EXTT1=
EXTT2=
EXTT3=
EXTT4=
EXTT5=
PLAYORDER=
